<?xml version="1.0" encoding="UTF-8"?>
<svg id="Layer_1" data-name="Layer 1" xmlns="http://www.w3.org/2000/svg" viewBox="0 0 209.75 209.76">
  <defs>
    <style>
      .cls-1 {
        fill: #fff;
      }

      .cls-2 {
        fill: #0e4b75;
      }

      .cls-3 {
        fill: #aecc53;
      }
    </style>
  </defs>
  <path class="cls-2" d="M180.4,104.88c0-41.71-33.81-75.51-75.51-75.51S29.37,63.18,29.37,104.88s33.81,75.51,75.51,75.51c2.48,0,75.27-.36,75.27-.36,0,0,.24-73.22,.24-75.15Z"/>
  <path class="cls-3" d="M157.3,157.3h0c-2.94,2.94-7.72,2.94-10.66,0l-13.34-13.34c-2.07-2.07-2.07-5.43,0-7.5l3.16-3.16c2.07-2.07,5.43-2.07,7.5,0l5.94,5.94,7.4,7.4c2.94,2.94,2.94,7.72,0,10.66Z"/>
  <g>
    <g>
      <path class="cls-3" d="M143.3,90.91h-44.12c-1.14,0-2.06-.92-2.06-2.06s.92-2.06,2.06-2.06h44.12c1.14,0,2.06,.92,2.06,2.06s-.92,2.06-2.06,2.06Z"/>
      <path class="cls-3" d="M143.3,106.95h-44.12c-1.14,0-2.06-.92-2.06-2.06s.92-2.06,2.06-2.06h44.12c1.14,0,2.06,.92,2.06,2.06s-.92,2.06-2.06,2.06Z"/>
      <path class="cls-3" d="M143.3,122.98h-44.12c-1.14,0-2.06-.92-2.06-2.06s.92-2.06,2.06-2.06h44.12c1.14,0,2.06,.92,2.06,2.06s-.92,2.06-2.06,2.06Z"/>
    </g>
    <g>
      <path class="cls-3" d="M87.3,92.49h-1.05c-2.01,0-3.64-1.63-3.64-3.64s1.63-3.64,3.64-3.64h1.05c2.01,0,3.64,1.63,3.64,3.64s-1.63,3.64-3.64,3.64Z"/>
      <path class="cls-3" d="M87.3,108.53h-1.05c-2.01,0-3.64-1.63-3.64-3.64s1.63-3.64,3.64-3.64h1.05c2.01,0,3.64,1.63,3.64,3.64s-1.63,3.64-3.64,3.64Z"/>
      <path class="cls-3" d="M87.3,124.56h-1.05c-2.01,0-3.64-1.63-3.64-3.64s1.63-3.64,3.64-3.64h1.05c2.01,0,3.64,1.63,3.64,3.64s-1.63,3.64-3.64,3.64Z"/>
    </g>
  </g>
  <path class="cls-1" d="M138.21,71.55c-18.41-18.41-48.25-18.41-66.66,0-18.41,18.41-18.41,48.25,0,66.66,18.41,18.41,48.25,18.41,66.66,0,18.41-18.41,18.41-48.25,0-66.66Zm-7.05,59.61c-14.51,14.51-38.05,14.51-52.56,0-14.51-14.51-14.51-38.05,0-52.56,14.51-14.51,38.05-14.51,52.56,0,14.51,14.51,14.51,38.05,0,52.56Z"/>
</svg>