<svg width="120" height="120" viewBox="0 0 120 120" fill="none" xmlns="http://www.w3.org/2000/svg">
<g clip-path="url(#clip0_603_9280)">
<path d="M32.4397 103.141H13.8187C11.4482 103.137 9.1747 102.199 7.49152 100.53C5.80835 98.8605 4.85117 96.5948 4.8277 94.2244V59.7467L0.770656 52.9254C0.559023 52.5813 0.447021 52.1852 0.447021 51.7812C0.447021 51.3771 0.559023 50.981 0.770656 50.6369L4.8277 43.8156V9.33791C4.85117 6.96748 5.80835 4.70187 7.49152 3.03261C9.1747 1.36335 11.4482 0.42506 13.8187 0.421265H32.4397V4.87959H13.8187C13.227 4.86973 12.6394 4.97774 12.0899 5.19737C11.5404 5.41701 11.0402 5.74387 10.6183 6.15885C10.1964 6.57383 9.8612 7.06862 9.63252 7.61443C9.40384 8.16024 9.28594 8.74613 9.28603 9.33791V44.425C9.28799 44.8277 9.18015 45.2233 8.974 45.5692L5.27361 51.7812L8.974 57.9931C9.17878 58.3396 9.28651 58.7349 9.28603 59.1374V94.2244C9.30932 95.4124 9.79695 96.5441 10.6441 97.3773C11.4912 98.2105 12.6305 98.6791 13.8187 98.6827H32.4397V103.141Z" fill="#AECC53"/>
<path d="M106.626 103.141H88.02V98.6827H106.626C107.814 98.679 108.954 98.2105 109.801 97.3773C110.648 96.544 111.135 95.4123 111.158 94.2244V59.063C111.158 58.6605 111.266 58.2653 111.47 57.9187L115.171 51.7068L111.47 45.4949C111.264 45.1489 111.156 44.7533 111.158 44.3506V9.26358C111.159 8.6718 111.041 8.0859 110.812 7.54009C110.584 6.99429 110.248 6.49944 109.827 6.08446C109.405 5.66948 108.904 5.34267 108.355 5.12304C107.805 4.90341 107.217 4.79539 106.626 4.80525H88.02V0.346928H106.626C107.803 0.337118 108.971 0.560512 110.061 1.00422C111.151 1.44793 112.143 2.10314 112.979 2.93211C113.815 3.76107 114.478 4.74738 114.931 5.83407C115.384 6.92076 115.617 8.08635 115.617 9.26358V43.7413L119.689 50.5625C119.893 50.9094 120 51.3045 120 51.7068C120 52.1092 119.893 52.5042 119.689 52.8511L115.617 59.6723V94.1501C115.597 96.5217 114.641 98.7895 112.957 100.46C111.273 102.13 108.997 103.067 106.626 103.067" fill="#AECC53"/>
<path d="M93.3707 55.6004C91.9785 55.4474 90.5734 55.7364 89.3546 56.4264C88.1358 57.1164 87.165 58.1724 86.5798 59.4449C85.9945 60.7173 85.8243 62.1417 86.0936 63.5161C86.3629 64.8906 87.0579 66.1454 88.08 67.1029C85.9918 72.1467 82.5761 76.5305 78.1958 79.7883C73.8154 83.0461 68.634 85.0562 63.2026 85.605V57.146C66.9551 56.6798 70.557 55.3844 73.7469 53.3538C76.9367 51.3232 79.6348 48.6082 81.6454 45.4057C83.1633 45.3794 84.6276 44.8409 85.8008 43.8776C86.9741 42.9143 87.7872 41.5826 88.1083 40.0989C88.4295 38.6152 88.2397 37.0665 87.5699 35.7042C86.9001 34.3419 85.7896 33.246 84.4185 32.5944C83.0474 31.9427 81.4964 31.7736 80.0171 32.1145C78.5378 32.4554 77.2172 33.2862 76.2695 34.4722C75.3219 35.6581 74.803 37.1296 74.7969 38.6476C74.7908 40.1657 75.2977 41.6412 76.2358 42.8348C74.7458 45.0374 72.8208 46.912 70.5794 48.3432C68.3381 49.7744 65.8277 50.7319 63.2026 51.157V23.337C64.558 22.6664 65.6468 21.5571 66.292 20.1894C66.9372 18.8218 67.1011 17.2761 66.7568 15.8035C66.4124 14.331 65.5804 13.0182 64.3956 12.0785C63.2107 11.1388 61.7426 10.6274 60.2304 10.6274C58.7181 10.6274 57.2504 11.1388 56.0656 12.0785C54.8808 13.0182 54.0487 14.331 53.7044 15.8035C53.36 17.2761 53.5235 18.8218 54.1688 20.1894C54.814 21.5571 55.9028 22.6664 57.2582 23.337V51.157C54.6307 50.733 52.118 49.776 49.8741 48.3448C47.6302 46.9136 45.7025 45.0385 44.2101 42.8348C45.1369 41.6476 45.636 40.1823 45.6262 38.6762C45.6164 37.1701 45.0985 35.7114 44.1564 34.5364C43.2143 33.3613 41.9029 32.5387 40.435 32.2017C38.967 31.8647 37.4284 32.0331 36.0681 32.6796C34.7078 33.3261 33.6055 34.4129 32.9398 35.764C32.2742 37.115 32.0841 38.6511 32.4003 40.1237C32.7165 41.5962 33.5205 42.9189 34.6821 43.8776C35.8437 44.8362 37.295 45.3746 38.8008 45.4057C40.8154 48.6079 43.5163 51.3223 46.7085 53.3527C49.9006 55.3831 53.504 56.6788 57.2582 57.146V85.605C51.8247 85.0572 46.6411 83.0476 42.2581 79.7899C37.8752 76.5321 34.4567 72.1478 32.3659 67.1029C33.1117 66.4052 33.6863 65.5445 34.0446 64.5881C34.4029 63.6318 34.5355 62.6055 34.4318 61.5894C34.309 60.3457 33.8408 59.161 33.0802 58.1693C32.3197 57.1775 31.297 56.4182 30.1276 55.977C28.9583 55.5359 27.6889 55.4304 26.4628 55.6727C25.2367 55.9149 24.1028 56.4952 23.1891 57.3479C22.2753 58.2006 21.6182 59.2918 21.2919 60.4982C20.9656 61.7047 20.9833 62.9783 21.3427 64.1754C21.7021 65.3724 22.389 66.445 23.3258 67.2722C24.2627 68.0994 25.4122 68.6481 26.6446 68.8565C29.13 75.1159 33.3116 80.5583 38.7195 84.5722C44.1275 88.5861 50.5472 91.0126 57.2582 91.5791V120.514H63.2026V91.5791C69.9078 91.0057 76.3208 88.5761 81.7227 84.5627C87.1247 80.5493 91.3022 75.1107 93.7868 68.8565C95.3897 68.5946 96.8425 67.7584 97.874 66.504C98.9055 65.2495 99.4452 63.6625 99.3924 62.0392C99.3396 60.4159 98.6982 58.8673 97.5874 57.6825C96.4765 56.4977 94.9723 55.7576 93.3558 55.6004" fill="#006D69"/>
</g>
<defs>
<clipPath id="clip0_603_9280">
<rect width="120" height="120" fill="white"/>
</clipPath>
</defs>
</svg>